<svg width="24" height="24" viewBox="0 0 24 24" fill="none" xmlns="http://www.w3.org/2000/svg">
<path fill-rule="evenodd" clip-rule="evenodd" d="M2 7C2 4.23858 4.23858 2 7 2H17C19.7614 2 22 4.23858 22 7V14.3C22 17.0614 19.7614 19.3 17 19.3H15.1142L13.4142 21C12.6332 21.781 11.3668 21.781 10.5858 21L8.88579 19.3H7C4.23857 19.3 2 17.0614 2 14.3V7ZM7 4C5.34315 4 4 5.34315 4 7V14.3C4 15.9569 5.34314 17.3 7 17.3H8.88579C9.41622 17.3 9.92493 17.5107 10.3 17.8858L12 19.5858L13.7 17.8858C14.0751 17.5107 14.5838 17.3 15.1142 17.3H17C18.6569 17.3 20 15.9569 20 14.3V7C20 5.34315 18.6569 4 17 4H7ZM10.9118 6.69407C11.5033 6.0706 12.4967 6.0706 13.0882 6.69407L14.2436 7.91194L15.7589 8.63446C16.5347 9.00435 16.8416 9.94911 16.4314 10.7043L15.6302 12.1795L15.4113 13.8439C15.2993 14.696 14.4956 15.2799 13.6506 15.1232L12 14.8171L10.3494 15.1232C9.5044 15.2799 8.70074 14.696 8.58867 13.8439L8.36977 12.1795L7.56855 10.7043C7.15838 9.94911 7.46534 9.00435 8.24109 8.63446L9.75639 7.91194L10.9118 6.69407ZM9.8401 7.87203L9.83951 7.87231ZM8.41403 12.261C8.41392 12.2608 8.41381 12.2606 8.41371 12.2604ZM15.586 12.261L15.5863 12.2604ZM14.1599 7.87203C14.1601 7.87212 14.1603 7.87221 14.1605 7.87231ZM12 8.45293L11.1435 9.35574C11.0169 9.48915 10.8669 9.59815 10.7009 9.67731L9.5776 10.2129L10.1715 11.3065C10.2593 11.4681 10.3166 11.6445 10.3406 11.8268L10.5029 13.0606L11.7265 12.8337C11.9073 12.8001 12.0927 12.8001 12.2735 12.8337L13.4971 13.0606L13.6594 11.8268C13.6834 11.6445 13.7407 11.4681 13.8285 11.3065L14.4224 10.2129L13.2991 9.67731C13.1331 9.59816 12.9831 9.48915 12.8565 9.35574L12 8.45293ZM14.8981 10.4397C14.8979 10.4396 14.8977 10.4396 14.8975 10.4395ZM9.10188 10.4397L9.10248 10.4395Z" fill="#667085"/>
</svg>
