<svg width="24" height="24" viewBox="0 0 24 24" fill="none" xmlns="http://www.w3.org/2000/svg">
<path fill-rule="evenodd" clip-rule="evenodd" d="M8 2C8.55228 2 9 2.44772 9 3V4H15V3C15 2.44772 15.4477 2 16 2C16.5523 2 17 2.44772 17 3V4C19.7614 4 22 6.23858 22 9V17C22 19.7614 19.7614 22 17 22H7C4.23858 22 2 19.7614 2 17V9C2 6.23858 4.23858 4 7 4V3C7 2.44772 7.44772 2 8 2ZM7 6C5.34315 6 4 7.34315 4 9H20C20 7.34315 18.6569 6 17 6V7C17 7.55228 16.5523 8 16 8C15.4477 8 15 7.55228 15 7V6H9V7C9 7.55228 8.55228 8 8 8C7.44772 8 7 7.55228 7 7V6ZM20 11L4 11V17C4 18.6569 5.34315 20 7 20H17C18.6569 20 20 18.6569 20 17V11Z" fill="#98A2B3"/>
</svg>
