<svg width="24" height="24" viewBox="0 0 24 24" fill="none" xmlns="http://www.w3.org/2000/svg">
<path fill-rule="evenodd" clip-rule="evenodd" d="M13 15.5C13 13.0147 10.9853 11 8.5 11C6.01472 11 4 13.0147 4 15.5C4 16.4574 4.29785 17.3422 4.80596 18.0707L5.07001 18.4493L4.89976 19.1002L5.55064 18.9299L5.92924 19.194C6.65773 19.7021 7.54258 20 8.5 20C10.9853 20 13 17.9853 13 15.5ZM8.5 9C12.0899 9 15 11.9101 15 15.5C15 19.0899 12.0899 22 8.5 22C7.29085 22 6.15672 21.669 5.18586 21.0926L2.10023 21.8998L2.90732 18.8141C2.331 17.8432 2 16.7091 2 15.5C2 11.9101 4.91015 9 8.5 9Z" fill="#667085"/>
<path fill-rule="evenodd" clip-rule="evenodd" d="M11 8.5C11 6.01472 13.0147 4 15.5 4C17.9853 4 20 6.01472 20 8.5C20 9.45738 19.7021 10.3422 19.194 11.0707L18.93 11.4493L19.1002 12.1002L18.4494 11.9299L18.0708 12.194C17.3423 12.7021 16.4574 13 15.5 13C15.0729 13 14.6613 12.9408 14.2722 12.8307L13.7278 14.7552C14.2924 14.9149 14.8871 15 15.5 15C16.7091 15 17.8433 14.669 18.8141 14.0926L21.8998 14.8998L21.0927 11.8141C21.669 10.8432 22 9.70911 22 8.5C22 4.91015 19.0899 2 15.5 2C11.9101 2 9 4.91015 9 8.5C9 9.11294 9.08512 9.70765 9.24478 10.2722L11.1693 9.72784C11.0592 9.33869 11 8.92709 11 8.5Z" fill="#667085"/>
<path fill-rule="evenodd" clip-rule="evenodd" d="M15.1089 5.03078C15.5643 4.95866 16.0307 5.01386 16.4567 5.1903C16.8826 5.36674 17.2515 5.65754 17.5225 6.03054C17.7935 6.40354 17.9561 6.84422 17.9923 7.30385C18.0284 7.76349 17.9368 8.22417 17.7275 8.63498C17.5182 9.04578 17.1993 9.3907 16.8062 9.6316C16.4131 9.8725 15.961 10 15.5 10C14.9477 10 14.5 9.55229 14.5 9C14.5 8.44772 14.9477 8 15.5 8C15.5922 8 15.6826 7.9745 15.7612 7.92632C15.8398 7.87814 15.9036 7.80916 15.9455 7.727C15.9873 7.64484 16.0057 7.5527 15.9984 7.46077C15.9912 7.36884 15.9587 7.28071 15.9045 7.20611C15.8503 7.13151 15.7765 7.07335 15.6913 7.03806C15.6061 7.00277 15.5128 6.99173 15.4218 7.00616C15.3307 7.02058 15.2454 7.05991 15.1753 7.1198C15.1051 7.17968 15.0529 7.25779 15.0244 7.34549C14.8538 7.87075 14.2896 8.1582 13.7644 7.98753C13.2391 7.81687 12.9517 7.25271 13.1223 6.72746C13.2648 6.28897 13.5258 5.89842 13.8764 5.59899C14.2269 5.29955 14.6535 5.1029 15.1089 5.03078Z" fill="#667085"/>
<path fill-rule="evenodd" clip-rule="evenodd" d="M15.5 8C16.0523 8 16.5 8.44772 16.5 9V9.5C16.5 10.0523 16.0523 10.5 15.5 10.5C14.9477 10.5 14.5 10.0523 14.5 9.5V9C14.5 8.44772 14.9477 8 15.5 8Z" fill="#667085"/>
<path fill-rule="evenodd" clip-rule="evenodd" d="M15.5 10.6875C16.0523 10.6875 16.5 11.1352 16.5 11.6875L16.5 11.7812C16.5 12.3335 16.0523 12.7812 15.5 12.7812C14.9477 12.7812 14.5 12.3335 14.5 11.7812L14.5 11.6875C14.5 11.1352 14.9477 10.6875 15.5 10.6875Z" fill="#667085"/>
<path fill-rule="evenodd" clip-rule="evenodd" d="M6 14C6 13.4477 6.44772 13 7 13H10C10.5523 13 11 13.4477 11 14C11 14.5523 10.5523 15 10 15H7C6.44772 15 6 14.5523 6 14Z" fill="#667085"/>
<path fill-rule="evenodd" clip-rule="evenodd" d="M6 17C6 16.4477 6.44772 16 7 16H8C8.55228 16 9 16.4477 9 17C9 17.5523 8.55228 18 8 18H7C6.44772 18 6 17.5523 6 17Z" fill="#667085"/>
</svg>
