<svg width="24" height="24" viewBox="0 0 24 24" fill="none" xmlns="http://www.w3.org/2000/svg">
<path fill-rule="evenodd" clip-rule="evenodd" d="M6 7C6 4.79086 7.79086 3 10 3H14C16.2091 3 18 4.79086 18 7C20.2091 7 22 8.79086 22 11V18C22 20.2091 20.2091 22 18 22H6C3.79086 22 2 20.2091 2 18V11C2 8.79086 3.79086 7 6 7ZM8 7H16C16 5.89543 15.1046 5 14 5H10C8.89543 5 8 5.89543 8 7ZM6 9C4.89543 9 4 9.89543 4 11V13L9.17071 13C9.58254 11.8348 10.6938 11 12 11C13.3062 11 14.4175 11.8348 14.8293 13L20 13V11C20 9.89543 19.1046 9 18 9H6ZM20 15L14.8293 15C14.4175 16.1652 13.3062 17 12 17C10.6938 17 9.58254 16.1652 9.17071 15L4 15V18C4 19.1046 4.89543 20 6 20H18C19.1046 20 20 19.1046 20 18V15ZM12 13C11.4477 13 11 13.4477 11 14C11 14.5523 11.4477 15 12 15C12.5523 15 13 14.5523 13 14C13 13.4477 12.5523 13 12 13Z" fill="#98A2B3"/>
</svg>
