<svg width="12" height="12" viewBox="0 0 12 12" fill="none" xmlns="http://www.w3.org/2000/svg">
<path fill-rule="evenodd" clip-rule="evenodd" d="M5.79048 1.3627C6.12919 0.911078 6.77435 0.829173 7.21517 1.18183L7.27171 1.22706C7.90873 1.73667 8.17238 2.58211 7.93797 3.36349L7.67202 4.25H9.5C10.3284 4.25 11 4.92158 11 5.75V5.90983C11 6.37557 10.8916 6.83491 10.6833 7.25147L9.47361 9.67082C9.21952 10.179 8.70012 10.5 8.13197 10.5H5.02698C4.75512 10.5 4.48836 10.4261 4.25524 10.2862L3.84265 10.0387C3.66493 10.3161 3.35394 10.5 3 10.5H2C1.44772 10.5 1 10.0523 1 9.5V5C1 4.44772 1.44772 4 2 4H3C3.24311 4 3.46595 4.08675 3.63926 4.23098L5.79048 1.3627ZM4 5.41667V8.96691L4.76974 9.42875L4.51249 9.8575L4.76974 9.42875C4.84744 9.47537 4.93636 9.5 5.02698 9.5H8.13197C8.32135 9.5 8.49448 9.393 8.57918 9.22361L9.78885 6.80426C9.92771 6.52655 10 6.22032 10 5.90983V5.75C10 5.47386 9.77614 5.25 9.5 5.25H7C6.84195 5.25 6.6932 5.17527 6.59885 5.04847C6.50451 4.92166 6.47567 4.75772 6.52109 4.60633L6.98014 3.07614C7.09735 2.68545 6.96552 2.26273 6.64701 2.00792L6.59048 1.9627L4 5.41667ZM3 5H2V9.5H3V5Z" fill="#079455"/>
</svg>
