<svg width="12" height="12" viewBox="0 0 12 12" fill="none" xmlns="http://www.w3.org/2000/svg">
<path fill-rule="evenodd" clip-rule="evenodd" d="M3.86803 2.5C3.67865 2.5 3.50552 2.607 3.42082 2.77639L2.21115 5.19574C2.07229 5.47345 2 5.77968 2 6.09017V6.25C2 6.52614 2.22386 6.75 2.5 6.75H5C5.15805 6.75 5.3068 6.82473 5.40115 6.95153C5.49549 7.07834 5.52433 7.24229 5.47891 7.39367L5.01986 8.92386C4.90265 9.31455 5.03448 9.73727 5.35299 9.99208L5.40952 10.0373L5.09717 10.4277L5.40952 10.0373L8 6.58333V3.0331L7.23026 2.57125C7.15256 2.52463 7.06364 2.5 6.97302 2.5H3.86803ZM8.15735 1.96131L7.74476 1.71376C7.51164 1.57389 7.24488 1.5 6.97302 1.5H3.86803C3.29988 1.5 2.78048 1.821 2.52639 2.32918L1.31672 4.74853C1.10844 5.1651 1 5.62443 1 6.09017V6.25C1 7.07843 1.67157 7.75 2.5 7.75H4.32798L4.06203 8.63651C3.82762 9.41789 4.09127 10.2633 4.72829 10.7729L5.04064 10.3825L4.72829 10.7729L4.78483 10.8182C5.22565 11.1708 5.87081 11.0889 6.20952 10.6373L8.36074 7.76902C8.53405 7.91325 8.7569 8 9 8H10C10.5523 8 11 7.55228 11 7V2.5C11 1.94772 10.5523 1.5 10 1.5H9C8.64606 1.5 8.33507 1.68388 8.15735 1.96131ZM10 2.5L9 2.5V7H10V2.5Z" fill="#D92D20"/>
</svg>
